<svg xmlns="http://www.w3.org/2000/svg" viewBox="0 0 1455 1081" preserveAspectRatio="xMidYMid slice" aria-hidden="true">
<g transform="translate(0,1081) scale(0.1,-0.1)" fill="#5f6f7a" stroke="none">
<path d="M12390 8001 c-261 -9 -418 -30 -584 -77 -202 -58 -338 -131 -452
-244 -73 -72 -108 -133 -130 -226 -52 -225 97 -463 429 -684 190 -126 411
-230 967 -452 609 -243 926 -399 1092 -535 239 -195 330 -382 268 -547 -32
-83 -126 -174 -235 -226 -177 -84 -382 -120 -685 -120 -237 0 -409 17 -717 70
-961 165 -2129 490 -3308 920 -353 129 -575 195 -805 239 -332 64 -637 71
-950 21 -477 -76 -839 -311 -924 -599 -24 -81 -21 -211 7 -292 54 -159 227
-369 439 -534 121 -94 380 -270 598 -405 168 -105 563 -369 667 -446 43 -32
128 -108 188 -169 121 -123 188 -222 233 -346 24 -65 27 -89 27 -194 0 -117
-1 -123 -34 -190 -116 -235 -444 -402 -926 -471 -165 -24 -518 -24 -715 0
-233 28 -510 87 -735 156 -411 126 -859 331 -1625 740 -1230 657 -1863 914
-2610 1059 -429 83 -900 112 -1314 80 -130 -9 -434 -49 -516 -67 l-35 -8 -3
-362 c-1 -219 1 -362 7 -362 5 0 63 15 128 34 243 70 494 100 803 99 259 -1
425 -19 695 -72 550 -110 1027 -301 1950 -782 836 -435 1140 -580 1555 -742
580 -226 1062 -345 1600 -393 143 -13 250 -15 470 -11 310 6 456 21 725 76
708 143 1230 466 1397 863 67 159 84 359 47 541 -71 355 -340 683 -832 1015
-168 113 -256 168 -612 380 -538 321 -708 450 -780 596 -57 115 -9 213 140
282 118 55 211 69 440 69 186 -1 211 -3 355 -33 151 -32 278 -67 430 -119 41
-14 192 -66 335 -115 1383 -477 2778 -819 3795 -929 166 -18 603 -15 768 5
506 61 905 224 1082 439 l50 62 0 328 0 329 -47 71 c-133 198 -387 392 -743
568 -202 100 -300 140 -1040 431 -563 221 -824 379 -919 558 -36 67 -39 114
-12 169 52 101 195 168 427 201 126 17 791 31 1591 33 l743 2 0 158 0 157 -97
0 c-54 0 -489 2 -968 4 -478 2 -971 1 -1095 -3z m523 -157 c-4 -13 -193 -17
-193 -5 0 6 36 11 83 13 104 4 113 3 110 -8z m407 6 c0 -6 -40 -10 -100 -10
-60 0 -100 4 -100 10 0 6 40 10 100 10 60 0 100 -4 100 -10z m390 0 c0 -6 -40
-10 -100 -10 -60 0 -100 4 -100 10 0 6 40 10 100 10 60 0 100 -4 100 -10z
m400 0 c0 -6 -40 -10 -100 -10 -60 0 -100 4 -100 10 0 6 40 10 100 10 60 0
100 -4 100 -10z m410 0 c0 -6 -40 -10 -100 -10 -60 0 -100 4 -100 10 0 6 40
10 100 10 60 0 100 -4 100 -10z m-2006 -9 c6 -8 -86 -21 -155 -21 -47 0 -52
17 -6 23 63 8 156 7 161 -2z m-394 -31 c0 -5 -12 -10 -27 -10 -16 -1 -56 -7
-91 -14 -34 -8 -65 -10 -67 -5 -5 7 20 16 90 32 38 9 95 7 95 -3z m-360 -90
c0 -5 -24 -21 -52 -36 -29 -14 -63 -35 -75 -47 -13 -11 -26 -17 -30 -14 -11
12 30 48 87 78 61 31 70 34 70 19z m-240 -206 c0 -26 -26 -84 -37 -84 -14 0
-13 11 8 68 8 20 29 32 29 16z m11 -276 c16 -32 17 -37 3 -42 -22 -8 -73 102
-53 115 10 6 16 2 22 -14 5 -12 17 -38 28 -59z m193 -240 c-9 -15 -21 -9 -74
39 -35 32 -47 48 -39 54 14 8 121 -79 113 -93z m174 -111 c20 -13 50 -32 65
-41 38 -23 24 -40 -16 -19 -65 33 -108 64 -102 73 8 14 10 13 53 -13z m332
-173 c78 -33 73 -30 66 -43 -4 -6 -24 -3 -54 10 -26 11 -62 27 -80 35 -20 8
-31 18 -27 24 4 6 12 9 19 7 6 -3 40 -17 76 -33z m327 -139 c35 -15 61 -31 58
-35 -4 -6 -121 30 -147 46 -12 8 2 26 16 21 6 -3 39 -17 73 -32z m310 -123
c79 -31 97 -42 67 -41 -29 0 -156 54 -148 62 9 9 -3 12 81 -21z m344 -138 c68
-27 94 -44 68 -44 -19 0 -140 48 -153 61 -18 17 19 9 85 -17z m303 -136 c36
-17 63 -35 60 -40 -5 -7 -144 57 -144 67 0 11 22 4 84 -27z m329 -181 c15 -10
25 -23 22 -28 -5 -8 -25 3 -113 58 -12 7 -20 18 -17 24 6 9 43 -9 108 -54z
m-6030 -57 c26 0 47 -4 47 -10 0 -6 -40 -10 -100 -10 -86 0 -100 2 -100 16 0
14 8 16 53 10 28 -3 73 -6 100 -6z m-363 -19 c0 -10 -12 -13 -119 -31 -60 -11
-83 -8 -67 7 7 7 125 30 164 32 12 1 22 -3 22 -8z m748 -33 c28 -6 52 -15 52
-20 0 -11 -13 -10 -103 7 -43 8 -81 15 -83 15 -2 0 -4 5 -4 11 0 12 40 8 138
-13z m5911 -122 c-15 -17 -126 84 -114 104 4 7 28 -8 64 -42 31 -29 54 -57 50
-62z m-7036 67 c11 -10 -136 -82 -147 -72 -12 11 -12 11 59 47 63 32 77 36 88
25z m1460 -34 c73 -22 96 -34 85 -45 -8 -8 -178 48 -178 58 0 12 15 10 93 -13z
m328 -108 c99 -35 113 -41 103 -51 -6 -6 -36 0 -79 16 -39 13 -76 27 -83 29
-7 3 -10 9 -7 15 8 13 2 13 66 -9z m-2048 -27 c8 -9 -65 -114 -80 -114 -7 0
-13 3 -13 6 0 19 66 114 79 114 4 0 10 -3 14 -6z m7430 -53 c31 -56 32 -61 13
-61 -11 0 -76 90 -76 106 0 2 8 4 18 4 10 0 28 -20 45 -49z m-5000 -57 c47
-16 75 -30 70 -35 -11 -11 -173 38 -173 52 0 14 19 11 103 -17z m350 -117 c38
-12 67 -26 65 -32 -2 -5 -5 -9 -8 -9 -78 21 -160 49 -160 55 0 14 29 10 103
-14z m-2860 -54 c4 -27 9 -60 13 -75 9 -40 -14 -36 -31 5 -11 27 -20 84 -16
110 1 4 7 7 15 7 9 0 16 -17 19 -47z m7590 -4 c7 -56 3 -69 -18 -69 -9 0 -14
18 -17 60 -2 50 0 60 13 60 12 0 18 -13 22 -51z m-4412 -44 c102 -35 103 -35
97 -41 -11 -10 -178 38 -178 52 0 17 -7 18 81 -11z m407 -117 c45 -12 82 -26
82 -30 0 -12 -19 -10 -107 13 -45 12 -80 26 -77 30 7 12 9 12 102 -13z m3982
-28 c0 -6 -11 -33 -25 -60 -17 -34 -30 -48 -39 -44 -12 5 -10 16 12 60 23 48
52 72 52 44z m-7436 -64 c30 -37 33 -45 19 -50 -15 -6 -57 32 -83 77 -9 14 -7
17 8 17 11 0 36 -20 56 -44z m3822 -12 c76 -17 87 -22 79 -33 -6 -10 -175 30
-175 41 0 12 20 10 96 -8z m367 -95 c81 -20 121 -39 82 -39 -42 1 -169 36
-173 48 -5 16 -5 16 91 -9z m3097 -39 c0 -11 -114 -90 -129 -90 -20 0 -11 19
17 37 15 9 40 27 55 40 29 24 57 30 57 13z m-7086 -45 c45 -34 54 -46 42 -51
-17 -7 -126 68 -126 86 0 20 28 9 84 -35z m4463 -29 c16 -16 -13 -16 -84 -1
-87 19 -95 23 -89 34 5 8 163 -22 173 -33z m382 -82 c14 -13 -16 -13 -83 0
-41 9 -84 16 -96 16 -19 0 -26 10 -15 22 6 5 186 -30 194 -38z m1955 -3 c4 -5
-34 -23 -84 -39 -55 -19 -92 -27 -96 -21 -8 14 -10 12 81 41 96 31 92 30 99
19z m-6484 -113 c0 -16 -27 -7 -85 28 -74 44 -72 43 -56 54 10 5 35 -6 77 -33
35 -23 64 -45 64 -49z m4855 62 c71 -11 83 -16 73 -26 -6 -5 -143 12 -181 22
-25 8 -9 27 17 20 11 -3 52 -10 91 -16z m393 -56 c92 -10 78 -27 -15 -19 -92
8 -113 13 -113 27 0 6 13 8 33 5 17 -4 60 -9 95 -13z m866 7 c7 -10 -28 -17
-126 -27 -93 -9 -89 10 5 23 99 14 115 14 121 4z m-394 -41 c0 -6 -38 -10 -94
-10 -53 0 -98 4 -101 10 -4 6 30 10 94 10 61 0 101 -4 101 -10z m-5498 -101
c38 -22 66 -44 63 -50 -9 -14 -22 -11 -63 14 -20 13 -50 32 -65 41 -15 9 -25
21 -22 26 9 15 13 13 87 -31z m287 -179 c48 -29 61 -41 48 -46 -17 -6 -137 60
-137 77 0 17 25 9 89 -31z m274 -172 c76 -52 55 -67 -26 -18 -64 40 -60 36
-52 49 9 16 10 15 78 -31z m-7183 -13 c0 -12 -17 -15 -95 -15 -78 0 -95 3 -95
15 0 12 17 15 95 15 78 0 95 -3 95 -15z m-390 -8 c0 -16 -188 -38 -197 -24 -8
14 0 16 98 25 51 5 95 10 97 11 1 0 2 -5 2 -12z m713 -4 c49 -4 67 -10 67 -20
0 -11 -9 -13 -37 -9 -21 3 -64 8 -95 12 -32 3 -58 10 -58 15 0 11 30 11 123 2z
m411 -63 c38 -8 55 -15 48 -22 -10 -10 -158 7 -182 22 -25 15 -1 28 37 20 21
-5 64 -14 97 -20z m-1516 8 c-5 -15 -177 -48 -184 -36 -9 14 -3 16 67 31 84
19 122 20 117 5z m8192 -77 c77 -56 113 -92 102 -103 -12 -12 -166 108 -157
123 9 13 11 12 55 -20z m-6267 -27 c13 -4 15 -9 7 -19 -8 -10 -26 -8 -92 11
-89 26 -93 28 -84 43 6 8 65 -4 169 -35z m310 -96 c54 -19 64 -27 51 -40 -4
-5 -84 18 -162 47 -7 3 -10 10 -7 16 8 12 37 7 118 -23z m6221 -114 c39 -49
20 -65 -23 -20 -18 19 -30 39 -27 45 11 17 19 13 50 -25z m-5897 -11 c80 -31
79 -31 66 -44 -7 -7 -27 -3 -64 12 -30 11 -64 25 -77 30 -13 5 -20 13 -17 19
9 14 17 13 92 -17z m392 -169 c3 -3 0 -9 -6 -15 -7 -7 -35 1 -89 26 -55 25
-75 38 -65 44 9 6 40 -2 85 -21 39 -17 73 -32 75 -34z m5645 1 c50 -78 48 -72
31 -79 -14 -5 -55 46 -72 90 -9 24 24 16 41 -11z m-5401 -116 c74 -37 73 -37
61 -49 -10 -10 -154 55 -154 70 0 17 29 11 93 -21z m5522 -121 c18 -63 19 -78
2 -78 -15 0 -51 105 -42 120 13 21 25 8 40 -42z m-5213 -35 c49 -25 66 -39 58
-47 -13 -13 -164 59 -155 74 10 16 23 12 97 -27z m301 -159 c78 -40 99 -56 89
-66 -12 -12 -162 62 -162 79 0 19 14 16 73 -13z m4957 -57 c0 -50 -3 -64 -15
-64 -12 0 -15 13 -15 57 0 31 3 60 7 63 17 17 23 2 23 -56z m-4649 -107 c33
-17 57 -35 54 -41 -8 -12 -32 -5 -90 28 -25 13 -43 29 -39 34 7 13 8 13 75
-21z m4625 -93 c-13 -52 -37 -97 -52 -97 -11 0 -14 5 -9 18 3 9 11 36 18 60 8
31 16 42 30 42 15 0 18 -5 13 -23z m-4316 -64 c56 -32 53 -30 45 -42 -4 -7
-36 4 -87 30 -56 28 -77 43 -68 49 16 10 47 -1 110 -37z m291 -142 c63 -29 80
-40 66 -46 -17 -7 -167 51 -167 65 0 6 11 20 16 20 1 0 39 -17 85 -39z m3919
-7 c0 -3 -21 -30 -46 -60 -37 -43 -50 -52 -60 -43 -11 9 -6 20 29 60 23 26 50
48 60 49 9 0 17 -3 17 -6z m-3594 -136 c47 -20 71 -35 65 -41 -16 -16 -177 45
-166 63 9 15 18 13 101 -22z m3372 -70 c-8 -22 -128 -92 -139 -81 -7 7 11 24
53 51 65 42 93 51 86 30z m-3043 -58 c79 -25 96 -36 72 -46 -15 -5 -117 24
-159 47 -19 10 -14 33 6 26 6 -2 43 -14 81 -27z m357 -118 c39 -9 68 -22 68
-29 0 -17 -2 -17 -97 8 -56 15 -83 27 -83 37 0 10 6 12 23 8 12 -4 52 -14 89
-24z m2388 15 c0 -12 -138 -67 -167 -67 -35 0 -4 21 70 49 95 35 97 35 97 18z
m-2028 -104 c62 -12 88 -21 88 -31 0 -11 -8 -13 -32 -8 -18 4 -63 12 -100 18
-45 7 -68 16 -68 24 0 18 5 17 112 -3z m1668 -16 c0 -8 -32 -19 -84 -30 -99
-20 -109 -21 -104 -5 3 7 38 20 79 29 93 21 109 22 109 6z m-1227 -53 c22 -4
36 -11 34 -17 -4 -14 3 -14 -109 -3 -68 6 -88 11 -88 23 0 15 42 14 163 -3z
m842 -13 c8 -13 -16 -18 -117 -26 -76 -6 -88 -5 -88 9 0 12 16 16 78 19 42 1
87 4 99 5 12 1 24 -2 28 -7z m-405 -28 c0 -13 -14 -14 -97 -8 -54 4 -100 9
-102 11 -14 13 21 19 103 16 78 -3 96 -6 96 -19z"/>
</g>
</svg>
